<svg width="24" height="22" viewBox="0 0 24 22" fill="none" xmlns="http://www.w3.org/2000/svg">
<g filter="url(#filter0_d_3230_86)">
<path d="M19.051 1.94769C19.0192 1.87113 18.9656 1.80562 18.8968 1.75936C18.8281 1.71309 18.7472 1.68811 18.6643 1.68753H16.4424C16.1678 1.18313 15.7638 0.760943 15.272 0.464368C14.7802 0.167793 14.2183 0.0075239 13.644 3.08737e-05C12.7811 -0.00372034 11.9519 0.334498 11.3379 0.940665C10.7238 1.54683 10.3748 2.37158 10.3674 3.23441V3.84612C7.38617 3.13597 4.92523 0.710187 4.89711 0.689093C4.8429 0.635582 4.77522 0.597745 4.70124 0.579597C4.62727 0.561449 4.54976 0.563668 4.47694 0.586018C4.40412 0.608368 4.33872 0.650014 4.28766 0.706538C4.2366 0.763062 4.2018 0.832355 4.18695 0.907062C3.57523 4.25394 4.5807 6.48988 5.52992 7.77659C6.03336 8.46555 6.65179 9.06257 7.35804 9.54144C6.2682 10.8633 4.47523 11.5524 4.45414 11.5594C4.39423 11.5815 4.34023 11.617 4.29632 11.6634C4.25242 11.7097 4.2198 11.7656 4.20101 11.8266C4.18106 11.8861 4.17512 11.9495 4.18366 12.0116C4.1922 12.0738 4.21498 12.1332 4.25023 12.1852C4.32054 12.2907 5.00961 13.2188 7.41429 13.2188C12.3151 13.2188 16.4143 9.42894 16.808 4.56331L18.9596 2.40472C19.0206 2.34758 19.0622 2.2728 19.0786 2.19086C19.095 2.10891 19.0853 2.02389 19.051 1.94769ZM16.0979 4.07816C16.0247 4.15112 15.982 4.24913 15.9784 4.35237C15.6901 8.85237 11.9284 12.375 7.41429 12.375C6.43695 12.375 5.81117 12.2063 5.43851 12.0375C6.23304 11.6367 7.53383 10.8493 8.32836 9.65394C8.36001 9.60438 8.38131 9.54894 8.39098 9.49094C8.40064 9.43294 8.39848 9.37358 8.38461 9.31644C8.36962 9.25797 8.34245 9.20332 8.30489 9.15606C8.26733 9.10881 8.22022 9.07002 8.16664 9.04222C8.15258 9.04222 7.09789 8.49378 6.18383 7.24222C5.09398 5.75159 4.66508 3.9305 4.90414 1.82816C5.9307 2.70003 8.14554 4.34534 10.719 4.77425C10.7796 4.78575 10.8419 4.78361 10.9016 4.76798C10.9612 4.75235 11.0166 4.72363 11.0637 4.68389C11.1109 4.64416 11.1486 4.59442 11.1741 4.53829C11.1996 4.48216 11.2123 4.42105 11.2112 4.35941V3.23441C11.2167 2.59722 11.4743 1.98814 11.9275 1.5402C12.3807 1.09227 12.9927 0.841899 13.6299 0.843781C14.0903 0.850429 14.5392 0.98913 14.9231 1.2434C15.307 1.49767 15.6098 1.85682 15.7955 2.27816C15.8276 2.35395 15.8815 2.41849 15.9504 2.46356C16.0193 2.50864 16.1 2.53221 16.1823 2.53128H17.6448L16.0979 4.07816Z" fill="#EFE7D2"/>
</g>
<defs>
<filter id="filter0_d_3230_86" x="0" y="0" width="23.0864" height="21.2188" filterUnits="userSpaceOnUse" color-interpolation-filters="sRGB">
<feFlood flood-opacity="0" result="BackgroundImageFix"/>
<feColorMatrix in="SourceAlpha" type="matrix" values="0 0 0 0 0 0 0 0 0 0 0 0 0 0 0 0 0 0 127 0" result="hardAlpha"/>
<feOffset dy="4"/>
<feGaussianBlur stdDeviation="2"/>
<feComposite in2="hardAlpha" operator="out"/>
<feColorMatrix type="matrix" values="0 0 0 0 0 0 0 0 0 0 0 0 0 0 0 0 0 0 0.25 0"/>
<feBlend mode="normal" in2="BackgroundImageFix" result="effect1_dropShadow_3230_86"/>
<feBlend mode="normal" in="SourceGraphic" in2="effect1_dropShadow_3230_86" result="shape"/>
</filter>
</defs>
</svg>
